<mxfile host="app.diagrams.net" agent="Mozilla/5.0 (Windows NT 10.0; Win64; x64) AppleWebKit/537.36 (KHTML, like Gecko) Chrome/138.0.0.0 Safari/537.36" version="28.0.7">
  <diagram id="C5RBs43oDa-KdzZeNtuy" name="Page-1">
    <mxGraphModel dx="3691" dy="1081" grid="1" gridSize="10" guides="1" tooltips="1" connect="1" arrows="1" fold="1" page="1" pageScale="1" pageWidth="827" pageHeight="1169" math="0" shadow="0">
      <root>
        <mxCell id="WIyWlLk6GJQsqaUBKTNV-0" />
        <mxCell id="WIyWlLk6GJQsqaUBKTNV-1" parent="WIyWlLk6GJQsqaUBKTNV-0" />
        <mxCell id="2I9qT5UJBkGQZ5aFNonT-186" value="" style="rounded=0;whiteSpace=wrap;html=1;fillStyle=auto;fillColor=#dae8fc;strokeColor=#6c8ebf;strokeWidth=0;" vertex="1" parent="WIyWlLk6GJQsqaUBKTNV-1">
          <mxGeometry x="-880" y="470" width="880" height="330" as="geometry" />
        </mxCell>
        <mxCell id="2I9qT5UJBkGQZ5aFNonT-185" value="" style="shape=folder;fontStyle=1;spacingTop=10;tabWidth=40;tabHeight=14;tabPosition=left;html=1;whiteSpace=wrap;align=left;fillStyle=auto;fillColor=#dae8fc;strokeColor=#6c8ebf;strokeWidth=0;" vertex="1" parent="WIyWlLk6GJQsqaUBKTNV-1">
          <mxGeometry x="-880" y="200" width="1560" height="290" as="geometry" />
        </mxCell>
        <mxCell id="2I9qT5UJBkGQZ5aFNonT-157" value="" style="endArrow=block;endFill=0;endSize=12;html=1;rounded=0;" edge="1" parent="WIyWlLk6GJQsqaUBKTNV-1" source="2I9qT5UJBkGQZ5aFNonT-152" target="2I9qT5UJBkGQZ5aFNonT-127">
          <mxGeometry width="160" relative="1" as="geometry">
            <mxPoint x="-80" y="720" as="sourcePoint" />
            <mxPoint x="-137" y="650" as="targetPoint" />
          </mxGeometry>
        </mxCell>
        <mxCell id="2I9qT5UJBkGQZ5aFNonT-83" value="" style="endArrow=block;endFill=0;endSize=12;html=1;rounded=0;" edge="1" parent="WIyWlLk6GJQsqaUBKTNV-1" source="2I9qT5UJBkGQZ5aFNonT-56" target="2I9qT5UJBkGQZ5aFNonT-19">
          <mxGeometry width="160" relative="1" as="geometry">
            <mxPoint x="562" y="440" as="sourcePoint" />
            <mxPoint x="480" y="470" as="targetPoint" />
          </mxGeometry>
        </mxCell>
        <mxCell id="2I9qT5UJBkGQZ5aFNonT-10" value="&lt;font style=&quot;font-size: 16px;&quot;&gt;AbstractParser&lt;/font&gt;" style="swimlane;fontStyle=1;align=center;verticalAlign=top;childLayout=stackLayout;horizontal=1;startSize=30;horizontalStack=0;resizeParent=1;resizeParentMax=0;resizeLast=0;collapsible=1;marginBottom=0;whiteSpace=wrap;html=1;fillColor=#f8cecc;strokeColor=#b85450;" vertex="1" parent="WIyWlLk6GJQsqaUBKTNV-1">
          <mxGeometry x="70" y="300" width="180" height="84" as="geometry" />
        </mxCell>
        <mxCell id="2I9qT5UJBkGQZ5aFNonT-12" value="" style="line;strokeWidth=1;fillColor=none;align=left;verticalAlign=middle;spacingTop=-1;spacingLeft=3;spacingRight=3;rotatable=0;labelPosition=right;points=[];portConstraint=eastwest;strokeColor=inherit;" vertex="1" parent="2I9qT5UJBkGQZ5aFNonT-10">
          <mxGeometry y="30" width="180" height="8" as="geometry" />
        </mxCell>
        <mxCell id="2I9qT5UJBkGQZ5aFNonT-13" value="+ parse(files, collection, logger) -&amp;gt; None" style="text;strokeColor=none;fillColor=default;align=left;verticalAlign=top;spacingLeft=4;spacingRight=4;overflow=hidden;rotatable=0;points=[[0,0.5],[1,0.5]];portConstraint=eastwest;whiteSpace=wrap;html=1;" vertex="1" parent="2I9qT5UJBkGQZ5aFNonT-10">
          <mxGeometry y="38" width="180" height="46" as="geometry" />
        </mxCell>
        <mxCell id="2I9qT5UJBkGQZ5aFNonT-14" value="&lt;font style=&quot;font-size: 16px;&quot;&gt;ABC&lt;/font&gt;" style="swimlane;fontStyle=1;align=center;verticalAlign=top;childLayout=stackLayout;horizontal=1;startSize=30;horizontalStack=0;resizeParent=1;resizeParentMax=0;resizeLast=0;collapsible=1;marginBottom=0;whiteSpace=wrap;html=1;fillColor=#f5f5f5;fontColor=#333333;strokeColor=#666666;" vertex="1" collapsed="1" parent="WIyWlLk6GJQsqaUBKTNV-1">
          <mxGeometry x="125" y="160" width="70" height="30" as="geometry">
            <mxRectangle x="50" y="190" width="170" height="38" as="alternateBounds" />
          </mxGeometry>
        </mxCell>
        <mxCell id="2I9qT5UJBkGQZ5aFNonT-16" value="" style="line;strokeWidth=1;fillColor=none;align=left;verticalAlign=middle;spacingTop=-1;spacingLeft=3;spacingRight=3;rotatable=0;labelPosition=right;points=[];portConstraint=eastwest;strokeColor=inherit;" vertex="1" parent="2I9qT5UJBkGQZ5aFNonT-14">
          <mxGeometry y="30" width="170" height="8" as="geometry" />
        </mxCell>
        <mxCell id="2I9qT5UJBkGQZ5aFNonT-18" value="" style="endArrow=block;endFill=0;endSize=12;html=1;rounded=0;" edge="1" parent="WIyWlLk6GJQsqaUBKTNV-1" source="2I9qT5UJBkGQZ5aFNonT-10" target="2I9qT5UJBkGQZ5aFNonT-14">
          <mxGeometry width="160" relative="1" as="geometry">
            <mxPoint x="170" y="370" as="sourcePoint" />
            <mxPoint x="330" y="370" as="targetPoint" />
          </mxGeometry>
        </mxCell>
        <mxCell id="2I9qT5UJBkGQZ5aFNonT-19" value="&lt;font style=&quot;font-size: 16px;&quot;&gt;AbstractReader&lt;/font&gt;" style="swimlane;fontStyle=1;align=center;verticalAlign=top;childLayout=stackLayout;horizontal=1;startSize=30;horizontalStack=0;resizeParent=1;resizeParentMax=0;resizeLast=0;collapsible=1;marginBottom=0;whiteSpace=wrap;html=1;fillColor=#f8cecc;strokeColor=#b85450;" vertex="1" parent="WIyWlLk6GJQsqaUBKTNV-1">
          <mxGeometry x="330.5" y="300" width="140" height="90" as="geometry" />
        </mxCell>
        <mxCell id="2I9qT5UJBkGQZ5aFNonT-20" value="+ file: str" style="text;strokeColor=none;fillColor=default;align=left;verticalAlign=top;spacingLeft=4;spacingRight=4;overflow=hidden;rotatable=0;points=[[0,0.5],[1,0.5]];portConstraint=eastwest;whiteSpace=wrap;html=1;" vertex="1" parent="2I9qT5UJBkGQZ5aFNonT-19">
          <mxGeometry y="30" width="140" height="26" as="geometry" />
        </mxCell>
        <mxCell id="2I9qT5UJBkGQZ5aFNonT-21" value="" style="line;strokeWidth=1;fillColor=none;align=left;verticalAlign=middle;spacingTop=-1;spacingLeft=3;spacingRight=3;rotatable=0;labelPosition=right;points=[];portConstraint=eastwest;strokeColor=inherit;" vertex="1" parent="2I9qT5UJBkGQZ5aFNonT-19">
          <mxGeometry y="56" width="140" height="8" as="geometry" />
        </mxCell>
        <mxCell id="2I9qT5UJBkGQZ5aFNonT-22" value="+ properties() -&amp;gt; dict" style="text;strokeColor=none;fillColor=default;align=left;verticalAlign=top;spacingLeft=4;spacingRight=4;overflow=hidden;rotatable=0;points=[[0,0.5],[1,0.5]];portConstraint=eastwest;whiteSpace=wrap;html=1;" vertex="1" parent="2I9qT5UJBkGQZ5aFNonT-19">
          <mxGeometry y="64" width="140" height="26" as="geometry" />
        </mxCell>
        <mxCell id="2I9qT5UJBkGQZ5aFNonT-27" value="&lt;font style=&quot;font-size: 16px;&quot;&gt;ABC&lt;/font&gt;" style="swimlane;fontStyle=1;align=center;verticalAlign=top;childLayout=stackLayout;horizontal=1;startSize=30;horizontalStack=0;resizeParent=1;resizeParentMax=0;resizeLast=0;collapsible=1;marginBottom=0;whiteSpace=wrap;html=1;fillColor=#f5f5f5;fontColor=#333333;strokeColor=#666666;" vertex="1" collapsed="1" parent="WIyWlLk6GJQsqaUBKTNV-1">
          <mxGeometry x="365.5" y="160" width="70" height="30" as="geometry">
            <mxRectangle x="50" y="190" width="170" height="38" as="alternateBounds" />
          </mxGeometry>
        </mxCell>
        <mxCell id="2I9qT5UJBkGQZ5aFNonT-28" value="" style="line;strokeWidth=1;fillColor=none;align=left;verticalAlign=middle;spacingTop=-1;spacingLeft=3;spacingRight=3;rotatable=0;labelPosition=right;points=[];portConstraint=eastwest;strokeColor=inherit;" vertex="1" parent="2I9qT5UJBkGQZ5aFNonT-27">
          <mxGeometry y="30" width="170" height="8" as="geometry" />
        </mxCell>
        <mxCell id="2I9qT5UJBkGQZ5aFNonT-29" value="" style="endArrow=block;endFill=0;endSize=12;html=1;rounded=0;" edge="1" parent="WIyWlLk6GJQsqaUBKTNV-1" source="2I9qT5UJBkGQZ5aFNonT-19" target="2I9qT5UJBkGQZ5aFNonT-27">
          <mxGeometry width="160" relative="1" as="geometry">
            <mxPoint x="150" y="310" as="sourcePoint" />
            <mxPoint x="150" y="270" as="targetPoint" />
          </mxGeometry>
        </mxCell>
        <mxCell id="2I9qT5UJBkGQZ5aFNonT-30" value="&lt;span style=&quot;font-size: 16px;&quot;&gt;MasterdataExampleParser&lt;/span&gt;" style="swimlane;fontStyle=1;align=center;verticalAlign=top;childLayout=stackLayout;horizontal=1;startSize=30;horizontalStack=0;resizeParent=1;resizeParentMax=0;resizeLast=0;collapsible=1;marginBottom=0;whiteSpace=wrap;html=1;fillColor=#e1d5e7;strokeColor=#9673a6;" vertex="1" parent="WIyWlLk6GJQsqaUBKTNV-1">
          <mxGeometry x="45" y="513" width="230" height="84" as="geometry" />
        </mxCell>
        <mxCell id="2I9qT5UJBkGQZ5aFNonT-31" value="" style="line;strokeWidth=1;fillColor=none;align=left;verticalAlign=middle;spacingTop=-1;spacingLeft=3;spacingRight=3;rotatable=0;labelPosition=right;points=[];portConstraint=eastwest;strokeColor=inherit;" vertex="1" parent="2I9qT5UJBkGQZ5aFNonT-30">
          <mxGeometry y="30" width="230" height="8" as="geometry" />
        </mxCell>
        <mxCell id="2I9qT5UJBkGQZ5aFNonT-32" value="+ parse(files, collection, logger) -&amp;gt; None" style="text;strokeColor=none;fillColor=none;align=left;verticalAlign=top;spacingLeft=4;spacingRight=4;overflow=hidden;rotatable=0;points=[[0,0.5],[1,0.5]];portConstraint=eastwest;whiteSpace=wrap;html=1;" vertex="1" parent="2I9qT5UJBkGQZ5aFNonT-30">
          <mxGeometry y="38" width="230" height="46" as="geometry" />
        </mxCell>
        <mxCell id="2I9qT5UJBkGQZ5aFNonT-48" value="&lt;font style=&quot;font-size: 16px;&quot;&gt;TxtReader&lt;/font&gt;" style="swimlane;fontStyle=1;align=center;verticalAlign=top;childLayout=stackLayout;horizontal=1;startSize=30;horizontalStack=0;resizeParent=1;resizeParentMax=0;resizeLast=0;collapsible=1;marginBottom=0;whiteSpace=wrap;html=1;fillColor=#f8cecc;strokeColor=#b85450;" vertex="1" collapsed="1" parent="WIyWlLk6GJQsqaUBKTNV-1">
          <mxGeometry x="530" y="380" width="120" height="30" as="geometry">
            <mxRectangle x="273" y="420" width="140" height="90" as="alternateBounds" />
          </mxGeometry>
        </mxCell>
        <mxCell id="2I9qT5UJBkGQZ5aFNonT-49" value="+ file: str" style="text;strokeColor=none;fillColor=default;align=left;verticalAlign=top;spacingLeft=4;spacingRight=4;overflow=hidden;rotatable=0;points=[[0,0.5],[1,0.5]];portConstraint=eastwest;whiteSpace=wrap;html=1;" vertex="1" parent="2I9qT5UJBkGQZ5aFNonT-48">
          <mxGeometry y="30" width="140" height="26" as="geometry" />
        </mxCell>
        <mxCell id="2I9qT5UJBkGQZ5aFNonT-50" value="" style="line;strokeWidth=1;fillColor=none;align=left;verticalAlign=middle;spacingTop=-1;spacingLeft=3;spacingRight=3;rotatable=0;labelPosition=right;points=[];portConstraint=eastwest;strokeColor=inherit;" vertex="1" parent="2I9qT5UJBkGQZ5aFNonT-48">
          <mxGeometry y="56" width="140" height="8" as="geometry" />
        </mxCell>
        <mxCell id="2I9qT5UJBkGQZ5aFNonT-51" value="+ properties() -&amp;gt; dict" style="text;strokeColor=none;fillColor=default;align=left;verticalAlign=top;spacingLeft=4;spacingRight=4;overflow=hidden;rotatable=0;points=[[0,0.5],[1,0.5]];portConstraint=eastwest;whiteSpace=wrap;html=1;" vertex="1" parent="2I9qT5UJBkGQZ5aFNonT-48">
          <mxGeometry y="64" width="140" height="26" as="geometry" />
        </mxCell>
        <mxCell id="2I9qT5UJBkGQZ5aFNonT-56" value="&lt;font style=&quot;font-size: 16px;&quot;&gt;JsonReader&lt;/font&gt;" style="swimlane;fontStyle=1;align=center;verticalAlign=top;childLayout=stackLayout;horizontal=1;startSize=30;horizontalStack=0;resizeParent=1;resizeParentMax=0;resizeLast=0;collapsible=1;marginBottom=0;whiteSpace=wrap;html=1;fillColor=#f8cecc;strokeColor=#b85450;" vertex="1" collapsed="1" parent="WIyWlLk6GJQsqaUBKTNV-1">
          <mxGeometry x="530" y="420" width="130" height="30" as="geometry">
            <mxRectangle x="280" y="530" width="140" height="90" as="alternateBounds" />
          </mxGeometry>
        </mxCell>
        <mxCell id="2I9qT5UJBkGQZ5aFNonT-57" value="+ file: str" style="text;strokeColor=none;fillColor=default;align=left;verticalAlign=top;spacingLeft=4;spacingRight=4;overflow=hidden;rotatable=0;points=[[0,0.5],[1,0.5]];portConstraint=eastwest;whiteSpace=wrap;html=1;" vertex="1" parent="2I9qT5UJBkGQZ5aFNonT-56">
          <mxGeometry y="30" width="140" height="26" as="geometry" />
        </mxCell>
        <mxCell id="2I9qT5UJBkGQZ5aFNonT-58" value="" style="line;strokeWidth=1;fillColor=none;align=left;verticalAlign=middle;spacingTop=-1;spacingLeft=3;spacingRight=3;rotatable=0;labelPosition=right;points=[];portConstraint=eastwest;strokeColor=inherit;" vertex="1" parent="2I9qT5UJBkGQZ5aFNonT-56">
          <mxGeometry y="56" width="140" height="8" as="geometry" />
        </mxCell>
        <mxCell id="2I9qT5UJBkGQZ5aFNonT-59" value="+ properties() -&amp;gt; dict" style="text;strokeColor=none;fillColor=default;align=left;verticalAlign=top;spacingLeft=4;spacingRight=4;overflow=hidden;rotatable=0;points=[[0,0.5],[1,0.5]];portConstraint=eastwest;whiteSpace=wrap;html=1;" vertex="1" parent="2I9qT5UJBkGQZ5aFNonT-56">
          <mxGeometry y="64" width="140" height="26" as="geometry" />
        </mxCell>
        <mxCell id="2I9qT5UJBkGQZ5aFNonT-60" value="&lt;font style=&quot;font-size: 16px;&quot;&gt;XmlReader&lt;/font&gt;" style="swimlane;fontStyle=1;align=center;verticalAlign=top;childLayout=stackLayout;horizontal=1;startSize=30;horizontalStack=0;resizeParent=1;resizeParentMax=0;resizeLast=0;collapsible=1;marginBottom=0;whiteSpace=wrap;html=1;fillColor=#f8cecc;strokeColor=#b85450;" vertex="1" collapsed="1" parent="WIyWlLk6GJQsqaUBKTNV-1">
          <mxGeometry x="530" y="340" width="120" height="30" as="geometry">
            <mxRectangle x="435.5" y="530" width="140" height="90" as="alternateBounds" />
          </mxGeometry>
        </mxCell>
        <mxCell id="2I9qT5UJBkGQZ5aFNonT-61" value="+ file: str" style="text;strokeColor=none;fillColor=default;align=left;verticalAlign=top;spacingLeft=4;spacingRight=4;overflow=hidden;rotatable=0;points=[[0,0.5],[1,0.5]];portConstraint=eastwest;whiteSpace=wrap;html=1;" vertex="1" parent="2I9qT5UJBkGQZ5aFNonT-60">
          <mxGeometry y="30" width="140" height="26" as="geometry" />
        </mxCell>
        <mxCell id="2I9qT5UJBkGQZ5aFNonT-62" value="" style="line;strokeWidth=1;fillColor=none;align=left;verticalAlign=middle;spacingTop=-1;spacingLeft=3;spacingRight=3;rotatable=0;labelPosition=right;points=[];portConstraint=eastwest;strokeColor=inherit;" vertex="1" parent="2I9qT5UJBkGQZ5aFNonT-60">
          <mxGeometry y="56" width="140" height="8" as="geometry" />
        </mxCell>
        <mxCell id="2I9qT5UJBkGQZ5aFNonT-63" value="+ properties() -&amp;gt; dict" style="text;strokeColor=none;fillColor=default;align=left;verticalAlign=top;spacingLeft=4;spacingRight=4;overflow=hidden;rotatable=0;points=[[0,0.5],[1,0.5]];portConstraint=eastwest;whiteSpace=wrap;html=1;" vertex="1" parent="2I9qT5UJBkGQZ5aFNonT-60">
          <mxGeometry y="64" width="140" height="26" as="geometry" />
        </mxCell>
        <mxCell id="2I9qT5UJBkGQZ5aFNonT-64" value="&lt;font style=&quot;font-size: 16px;&quot;&gt;Hdf5Reader&lt;/font&gt;" style="swimlane;fontStyle=1;align=center;verticalAlign=top;childLayout=stackLayout;horizontal=1;startSize=30;horizontalStack=0;resizeParent=1;resizeParentMax=0;resizeLast=0;collapsible=1;marginBottom=0;whiteSpace=wrap;html=1;fillColor=#f8cecc;strokeColor=#b85450;" vertex="1" collapsed="1" parent="WIyWlLk6GJQsqaUBKTNV-1">
          <mxGeometry x="530" y="300" width="130" height="30" as="geometry">
            <mxRectangle x="590" y="420" width="140" height="90" as="alternateBounds" />
          </mxGeometry>
        </mxCell>
        <mxCell id="2I9qT5UJBkGQZ5aFNonT-65" value="+ file: str" style="text;strokeColor=none;fillColor=default;align=left;verticalAlign=top;spacingLeft=4;spacingRight=4;overflow=hidden;rotatable=0;points=[[0,0.5],[1,0.5]];portConstraint=eastwest;whiteSpace=wrap;html=1;" vertex="1" parent="2I9qT5UJBkGQZ5aFNonT-64">
          <mxGeometry y="30" width="140" height="26" as="geometry" />
        </mxCell>
        <mxCell id="2I9qT5UJBkGQZ5aFNonT-66" value="" style="line;strokeWidth=1;fillColor=none;align=left;verticalAlign=middle;spacingTop=-1;spacingLeft=3;spacingRight=3;rotatable=0;labelPosition=right;points=[];portConstraint=eastwest;strokeColor=inherit;" vertex="1" parent="2I9qT5UJBkGQZ5aFNonT-64">
          <mxGeometry y="56" width="140" height="8" as="geometry" />
        </mxCell>
        <mxCell id="2I9qT5UJBkGQZ5aFNonT-67" value="+ properties() -&amp;gt; dict" style="text;strokeColor=none;fillColor=default;align=left;verticalAlign=top;spacingLeft=4;spacingRight=4;overflow=hidden;rotatable=0;points=[[0,0.5],[1,0.5]];portConstraint=eastwest;whiteSpace=wrap;html=1;" vertex="1" parent="2I9qT5UJBkGQZ5aFNonT-64">
          <mxGeometry y="64" width="140" height="26" as="geometry" />
        </mxCell>
        <mxCell id="2I9qT5UJBkGQZ5aFNonT-52" value="&lt;font style=&quot;font-size: 16px;&quot;&gt;ExcelReader&lt;/font&gt;" style="swimlane;fontStyle=1;align=center;verticalAlign=top;childLayout=stackLayout;horizontal=1;startSize=30;horizontalStack=0;resizeParent=1;resizeParentMax=0;resizeLast=0;collapsible=1;marginBottom=0;whiteSpace=wrap;html=1;fillColor=#f8cecc;strokeColor=#b85450;" vertex="1" collapsed="1" parent="WIyWlLk6GJQsqaUBKTNV-1">
          <mxGeometry x="530" y="260" width="130" height="30" as="geometry">
            <mxRectangle x="435.5" y="420" width="140" height="90" as="alternateBounds" />
          </mxGeometry>
        </mxCell>
        <mxCell id="2I9qT5UJBkGQZ5aFNonT-53" value="+ file: str" style="text;align=left;verticalAlign=top;spacingLeft=4;spacingRight=4;overflow=hidden;rotatable=0;points=[[0,0.5],[1,0.5]];portConstraint=eastwest;whiteSpace=wrap;html=1;fillColor=default;" vertex="1" parent="2I9qT5UJBkGQZ5aFNonT-52">
          <mxGeometry y="30" width="140" height="26" as="geometry" />
        </mxCell>
        <mxCell id="2I9qT5UJBkGQZ5aFNonT-54" value="" style="line;strokeWidth=1;fillColor=none;align=left;verticalAlign=middle;spacingTop=-1;spacingLeft=3;spacingRight=3;rotatable=0;labelPosition=right;points=[];portConstraint=eastwest;strokeColor=inherit;" vertex="1" parent="2I9qT5UJBkGQZ5aFNonT-52">
          <mxGeometry y="56" width="140" height="8" as="geometry" />
        </mxCell>
        <mxCell id="2I9qT5UJBkGQZ5aFNonT-55" value="+ properties() -&amp;gt; dict" style="text;strokeColor=none;fillColor=default;align=left;verticalAlign=top;spacingLeft=4;spacingRight=4;overflow=hidden;rotatable=0;points=[[0,0.5],[1,0.5]];portConstraint=eastwest;whiteSpace=wrap;html=1;" vertex="1" parent="2I9qT5UJBkGQZ5aFNonT-52">
          <mxGeometry y="64" width="140" height="26" as="geometry" />
        </mxCell>
        <mxCell id="2I9qT5UJBkGQZ5aFNonT-75" value="Use any" style="endArrow=open;endSize=12;dashed=1;html=1;rounded=0;" edge="1" parent="WIyWlLk6GJQsqaUBKTNV-1" source="2I9qT5UJBkGQZ5aFNonT-30" target="2I9qT5UJBkGQZ5aFNonT-19">
          <mxGeometry width="160" relative="1" as="geometry">
            <mxPoint x="310" y="440" as="sourcePoint" />
            <mxPoint x="470" y="440" as="targetPoint" />
          </mxGeometry>
        </mxCell>
        <mxCell id="2I9qT5UJBkGQZ5aFNonT-76" value="" style="endArrow=block;endFill=0;endSize=12;html=1;rounded=0;" edge="1" parent="WIyWlLk6GJQsqaUBKTNV-1" source="2I9qT5UJBkGQZ5aFNonT-30" target="2I9qT5UJBkGQZ5aFNonT-10">
          <mxGeometry width="160" relative="1" as="geometry">
            <mxPoint x="430" y="350" as="sourcePoint" />
            <mxPoint x="430" y="310" as="targetPoint" />
          </mxGeometry>
        </mxCell>
        <mxCell id="2I9qT5UJBkGQZ5aFNonT-79" value="" style="endArrow=block;endFill=0;endSize=12;html=1;rounded=0;" edge="1" parent="WIyWlLk6GJQsqaUBKTNV-1" source="2I9qT5UJBkGQZ5aFNonT-64" target="2I9qT5UJBkGQZ5aFNonT-19">
          <mxGeometry width="160" relative="1" as="geometry">
            <mxPoint x="482" y="420" as="sourcePoint" />
            <mxPoint x="400" y="450" as="targetPoint" />
          </mxGeometry>
        </mxCell>
        <mxCell id="2I9qT5UJBkGQZ5aFNonT-80" value="" style="endArrow=block;endFill=0;endSize=12;html=1;rounded=0;" edge="1" parent="WIyWlLk6GJQsqaUBKTNV-1" source="2I9qT5UJBkGQZ5aFNonT-52" target="2I9qT5UJBkGQZ5aFNonT-19">
          <mxGeometry width="160" relative="1" as="geometry">
            <mxPoint x="642" y="330" as="sourcePoint" />
            <mxPoint x="560" y="360" as="targetPoint" />
          </mxGeometry>
        </mxCell>
        <mxCell id="2I9qT5UJBkGQZ5aFNonT-81" value="" style="endArrow=block;endFill=0;endSize=12;html=1;rounded=0;" edge="1" parent="WIyWlLk6GJQsqaUBKTNV-1" source="2I9qT5UJBkGQZ5aFNonT-60" target="2I9qT5UJBkGQZ5aFNonT-19">
          <mxGeometry width="160" relative="1" as="geometry">
            <mxPoint x="582" y="390" as="sourcePoint" />
            <mxPoint x="500" y="420" as="targetPoint" />
          </mxGeometry>
        </mxCell>
        <mxCell id="2I9qT5UJBkGQZ5aFNonT-82" value="" style="endArrow=block;endFill=0;endSize=12;html=1;rounded=0;" edge="1" parent="WIyWlLk6GJQsqaUBKTNV-1" source="2I9qT5UJBkGQZ5aFNonT-48" target="2I9qT5UJBkGQZ5aFNonT-19">
          <mxGeometry width="160" relative="1" as="geometry">
            <mxPoint x="572" y="420" as="sourcePoint" />
            <mxPoint x="490" y="450" as="targetPoint" />
          </mxGeometry>
        </mxCell>
        <mxCell id="2I9qT5UJBkGQZ5aFNonT-84" value="&lt;font style=&quot;font-size: 16px;&quot;&gt;ObjectType&lt;/font&gt;" style="swimlane;fontStyle=1;align=center;verticalAlign=top;childLayout=stackLayout;horizontal=1;startSize=30;horizontalStack=0;resizeParent=1;resizeParentMax=0;resizeLast=0;collapsible=1;marginBottom=0;whiteSpace=wrap;html=1;fillColor=#f8cecc;strokeColor=#b85450;" vertex="1" collapsed="1" parent="WIyWlLk6GJQsqaUBKTNV-1">
          <mxGeometry x="-670" y="460" width="120" height="30" as="geometry">
            <mxRectangle x="-730" y="460" width="240" height="190" as="alternateBounds" />
          </mxGeometry>
        </mxCell>
        <mxCell id="2I9qT5UJBkGQZ5aFNonT-85" value="&lt;div&gt;- _properties: dict&lt;/div&gt;+ properties: list[PropertyTypeAssignment]" style="text;strokeColor=none;fillColor=default;align=left;verticalAlign=top;spacingLeft=4;spacingRight=4;overflow=hidden;rotatable=0;points=[[0,0.5],[1,0.5]];portConstraint=eastwest;whiteSpace=wrap;html=1;" vertex="1" parent="2I9qT5UJBkGQZ5aFNonT-84">
          <mxGeometry y="30" width="240" height="40" as="geometry" />
        </mxCell>
        <mxCell id="2I9qT5UJBkGQZ5aFNonT-86" value="" style="line;strokeWidth=1;fillColor=none;align=left;verticalAlign=middle;spacingTop=-1;spacingLeft=3;spacingRight=3;rotatable=0;labelPosition=right;points=[];portConstraint=eastwest;strokeColor=inherit;" vertex="1" parent="2I9qT5UJBkGQZ5aFNonT-84">
          <mxGeometry y="70" width="240" height="8" as="geometry" />
        </mxCell>
        <mxCell id="2I9qT5UJBkGQZ5aFNonT-87" value="&lt;div&gt;+ (property) cls_name -&amp;gt; str&lt;/div&gt;&lt;div&gt;+ (classmethod) model_validator_after_init(data) -&amp;gt; Any&lt;/div&gt;+ get_vocabulary_class(vocabulary_code, vocab_path) -&amp;gt; VocabularyType&lt;div&gt;+ to_openbis(logger, openbis, type, type_map) -&amp;gt; None&lt;/div&gt;" style="text;strokeColor=none;fillColor=default;align=left;verticalAlign=top;spacingLeft=4;spacingRight=4;overflow=hidden;rotatable=0;points=[[0,0.5],[1,0.5]];portConstraint=eastwest;whiteSpace=wrap;html=1;" vertex="1" parent="2I9qT5UJBkGQZ5aFNonT-84">
          <mxGeometry y="78" width="240" height="112" as="geometry" />
        </mxCell>
        <mxCell id="2I9qT5UJBkGQZ5aFNonT-88" value="&lt;font style=&quot;font-size: 16px;&quot;&gt;pydantic.BaseModel&lt;/font&gt;" style="swimlane;fontStyle=1;align=center;verticalAlign=top;childLayout=stackLayout;horizontal=1;startSize=30;horizontalStack=0;resizeParent=1;resizeParentMax=0;resizeLast=0;collapsible=1;marginBottom=0;whiteSpace=wrap;html=1;fillColor=#f5f5f5;fontColor=#333333;strokeColor=#666666;" vertex="1" collapsed="1" parent="WIyWlLk6GJQsqaUBKTNV-1">
          <mxGeometry x="-510" y="150" width="180" height="30" as="geometry">
            <mxRectangle x="50" y="190" width="170" height="38" as="alternateBounds" />
          </mxGeometry>
        </mxCell>
        <mxCell id="2I9qT5UJBkGQZ5aFNonT-89" value="" style="line;strokeWidth=1;fillColor=none;align=left;verticalAlign=middle;spacingTop=-1;spacingLeft=3;spacingRight=3;rotatable=0;labelPosition=right;points=[];portConstraint=eastwest;strokeColor=inherit;" vertex="1" parent="2I9qT5UJBkGQZ5aFNonT-88">
          <mxGeometry y="30" width="170" height="8" as="geometry" />
        </mxCell>
        <mxCell id="2I9qT5UJBkGQZ5aFNonT-90" value="&lt;font style=&quot;font-size: 16px;&quot;&gt;BaseEntity&lt;/font&gt;" style="swimlane;fontStyle=1;align=center;verticalAlign=top;childLayout=stackLayout;horizontal=1;startSize=30;horizontalStack=0;resizeParent=1;resizeParentMax=0;resizeLast=0;collapsible=1;marginBottom=0;whiteSpace=wrap;html=1;fillColor=#f8cecc;strokeColor=#b85450;" vertex="1" collapsed="1" parent="WIyWlLk6GJQsqaUBKTNV-1">
          <mxGeometry x="-670" y="250" width="120" height="30" as="geometry">
            <mxRectangle x="-730" y="255" width="240" height="280" as="alternateBounds" />
          </mxGeometry>
        </mxCell>
        <mxCell id="2I9qT5UJBkGQZ5aFNonT-91" value="- _property_metadata: dict" style="text;strokeColor=none;fillColor=default;align=left;verticalAlign=top;spacingLeft=4;spacingRight=4;overflow=hidden;rotatable=0;points=[[0,0.5],[1,0.5]];portConstraint=eastwest;whiteSpace=wrap;html=1;" vertex="1" parent="2I9qT5UJBkGQZ5aFNonT-90">
          <mxGeometry y="30" width="240" height="26" as="geometry" />
        </mxCell>
        <mxCell id="2I9qT5UJBkGQZ5aFNonT-92" value="" style="line;strokeWidth=1;fillColor=none;align=left;verticalAlign=middle;spacingTop=-1;spacingLeft=3;spacingRight=3;rotatable=0;labelPosition=right;points=[];portConstraint=eastwest;strokeColor=inherit;" vertex="1" parent="2I9qT5UJBkGQZ5aFNonT-90">
          <mxGeometry y="56" width="240" height="8" as="geometry" />
        </mxCell>
        <mxCell id="2I9qT5UJBkGQZ5aFNonT-93" value="+ (property) cls_name -&amp;gt; str&lt;div&gt;- (property) _base_attrs -&amp;gt; list&lt;/div&gt;&lt;div&gt;- _to_openbis(logger, openbis, type, type_map, get_type, create_type) -&amp;gt; None&lt;/div&gt;&lt;div&gt;+ get_property_metadata() -&amp;gt; dict&lt;/div&gt;&lt;div&gt;+ to_json(indent) -&amp;gt; str&lt;/div&gt;&lt;div&gt;+ to_dict() -&amp;gt; dict&lt;/div&gt;&lt;div&gt;+ to_hdf5(hdf_file, group_name) -&amp;gt; h5py.File&lt;/div&gt;&lt;div&gt;+ model_to_dict() -&amp;gt; dict&lt;/div&gt;&lt;div&gt;+ model_to_json(indent) -&amp;gt; str&lt;/div&gt;&lt;div&gt;- _add_properties_rdf(namespace, graph, prop, logger) -&amp;gt; URIRef&lt;/div&gt;&lt;div&gt;+ model_to_rdf(namespace, graph, logger) -&amp;gt; None&lt;/div&gt;&lt;div&gt;&lt;br&gt;&lt;/div&gt;" style="text;strokeColor=none;fillColor=default;align=left;verticalAlign=top;spacingLeft=4;spacingRight=4;overflow=hidden;rotatable=0;points=[[0,0.5],[1,0.5]];portConstraint=eastwest;whiteSpace=wrap;html=1;" vertex="1" parent="2I9qT5UJBkGQZ5aFNonT-90">
          <mxGeometry y="64" width="240" height="216" as="geometry" />
        </mxCell>
        <mxCell id="2I9qT5UJBkGQZ5aFNonT-94" value="&lt;font style=&quot;font-size: 16px;&quot;&gt;PropertyTypeAssignment&lt;/font&gt;" style="swimlane;fontStyle=1;align=center;verticalAlign=top;childLayout=stackLayout;horizontal=1;startSize=30;horizontalStack=0;resizeParent=1;resizeParentMax=0;resizeLast=0;collapsible=1;marginBottom=0;whiteSpace=wrap;html=1;fillColor=#f8cecc;strokeColor=#b85450;" vertex="1" collapsed="1" parent="WIyWlLk6GJQsqaUBKTNV-1">
          <mxGeometry x="-444" y="380" width="220" height="30" as="geometry">
            <mxRectangle x="-430" y="450" width="240" height="104" as="alternateBounds" />
          </mxGeometry>
        </mxCell>
        <mxCell id="2I9qT5UJBkGQZ5aFNonT-95" value="&lt;div&gt;+&lt;/div&gt;" style="text;strokeColor=none;fillColor=default;align=left;verticalAlign=top;spacingLeft=4;spacingRight=4;overflow=hidden;rotatable=0;points=[[0,0.5],[1,0.5]];portConstraint=eastwest;whiteSpace=wrap;html=1;" vertex="1" parent="2I9qT5UJBkGQZ5aFNonT-94">
          <mxGeometry y="30" width="240" height="40" as="geometry" />
        </mxCell>
        <mxCell id="2I9qT5UJBkGQZ5aFNonT-96" value="" style="line;strokeWidth=1;fillColor=none;align=left;verticalAlign=middle;spacingTop=-1;spacingLeft=3;spacingRight=3;rotatable=0;labelPosition=right;points=[];portConstraint=eastwest;strokeColor=inherit;" vertex="1" parent="2I9qT5UJBkGQZ5aFNonT-94">
          <mxGeometry y="70" width="240" height="8" as="geometry" />
        </mxCell>
        <mxCell id="2I9qT5UJBkGQZ5aFNonT-97" value="&lt;div&gt;+&lt;/div&gt;" style="text;strokeColor=none;fillColor=default;align=left;verticalAlign=top;spacingLeft=4;spacingRight=4;overflow=hidden;rotatable=0;points=[[0,0.5],[1,0.5]];portConstraint=eastwest;whiteSpace=wrap;html=1;" vertex="1" parent="2I9qT5UJBkGQZ5aFNonT-94">
          <mxGeometry y="78" width="240" height="26" as="geometry" />
        </mxCell>
        <mxCell id="2I9qT5UJBkGQZ5aFNonT-98" value="" style="endArrow=block;endFill=0;endSize=12;html=1;rounded=0;" edge="1" parent="WIyWlLk6GJQsqaUBKTNV-1" source="2I9qT5UJBkGQZ5aFNonT-84" target="2I9qT5UJBkGQZ5aFNonT-90">
          <mxGeometry width="160" relative="1" as="geometry">
            <mxPoint x="150" y="589" as="sourcePoint" />
            <mxPoint x="150" y="430" as="targetPoint" />
          </mxGeometry>
        </mxCell>
        <mxCell id="2I9qT5UJBkGQZ5aFNonT-99" value="" style="endArrow=block;endFill=0;endSize=12;html=1;rounded=0;" edge="1" parent="WIyWlLk6GJQsqaUBKTNV-1" source="2I9qT5UJBkGQZ5aFNonT-90" target="2I9qT5UJBkGQZ5aFNonT-88">
          <mxGeometry width="160" relative="1" as="geometry">
            <mxPoint x="-390" y="429" as="sourcePoint" />
            <mxPoint x="-390" y="270" as="targetPoint" />
          </mxGeometry>
        </mxCell>
        <mxCell id="2I9qT5UJBkGQZ5aFNonT-100" value="&lt;font style=&quot;font-size: 16px;&quot;&gt;PropertyTypeDef&lt;/font&gt;" style="swimlane;fontStyle=1;align=center;verticalAlign=top;childLayout=stackLayout;horizontal=1;startSize=30;horizontalStack=0;resizeParent=1;resizeParentMax=0;resizeLast=0;collapsible=1;marginBottom=0;whiteSpace=wrap;html=1;fillColor=#f8cecc;strokeColor=#b85450;" vertex="1" collapsed="1" parent="WIyWlLk6GJQsqaUBKTNV-1">
          <mxGeometry x="-414" y="320" width="160" height="30" as="geometry">
            <mxRectangle x="-385" y="330" width="240" height="104" as="alternateBounds" />
          </mxGeometry>
        </mxCell>
        <mxCell id="2I9qT5UJBkGQZ5aFNonT-101" value="&lt;div&gt;+&lt;/div&gt;" style="text;strokeColor=none;fillColor=default;align=left;verticalAlign=top;spacingLeft=4;spacingRight=4;overflow=hidden;rotatable=0;points=[[0,0.5],[1,0.5]];portConstraint=eastwest;whiteSpace=wrap;html=1;" vertex="1" parent="2I9qT5UJBkGQZ5aFNonT-100">
          <mxGeometry y="30" width="240" height="40" as="geometry" />
        </mxCell>
        <mxCell id="2I9qT5UJBkGQZ5aFNonT-102" value="" style="line;strokeWidth=1;fillColor=none;align=left;verticalAlign=middle;spacingTop=-1;spacingLeft=3;spacingRight=3;rotatable=0;labelPosition=right;points=[];portConstraint=eastwest;strokeColor=inherit;" vertex="1" parent="2I9qT5UJBkGQZ5aFNonT-100">
          <mxGeometry y="70" width="240" height="8" as="geometry" />
        </mxCell>
        <mxCell id="2I9qT5UJBkGQZ5aFNonT-103" value="&lt;div&gt;+&lt;/div&gt;" style="text;strokeColor=none;fillColor=default;align=left;verticalAlign=top;spacingLeft=4;spacingRight=4;overflow=hidden;rotatable=0;points=[[0,0.5],[1,0.5]];portConstraint=eastwest;whiteSpace=wrap;html=1;" vertex="1" parent="2I9qT5UJBkGQZ5aFNonT-100">
          <mxGeometry y="78" width="240" height="26" as="geometry" />
        </mxCell>
        <mxCell id="2I9qT5UJBkGQZ5aFNonT-104" value="&lt;font style=&quot;font-size: 16px;&quot;&gt;EntityDef&lt;/font&gt;" style="swimlane;fontStyle=1;align=center;verticalAlign=top;childLayout=stackLayout;horizontal=1;startSize=30;horizontalStack=0;resizeParent=1;resizeParentMax=0;resizeLast=0;collapsible=1;marginBottom=0;whiteSpace=wrap;html=1;fillColor=#f8cecc;strokeColor=#b85450;" vertex="1" collapsed="1" parent="WIyWlLk6GJQsqaUBKTNV-1">
          <mxGeometry x="-320" y="250" width="110" height="30" as="geometry">
            <mxRectangle x="-380" y="276" width="240" height="104" as="alternateBounds" />
          </mxGeometry>
        </mxCell>
        <mxCell id="2I9qT5UJBkGQZ5aFNonT-105" value="&lt;div&gt;+&lt;/div&gt;" style="text;strokeColor=none;fillColor=default;align=left;verticalAlign=top;spacingLeft=4;spacingRight=4;overflow=hidden;rotatable=0;points=[[0,0.5],[1,0.5]];portConstraint=eastwest;whiteSpace=wrap;html=1;" vertex="1" parent="2I9qT5UJBkGQZ5aFNonT-104">
          <mxGeometry y="30" width="240" height="40" as="geometry" />
        </mxCell>
        <mxCell id="2I9qT5UJBkGQZ5aFNonT-106" value="" style="line;strokeWidth=1;fillColor=none;align=left;verticalAlign=middle;spacingTop=-1;spacingLeft=3;spacingRight=3;rotatable=0;labelPosition=right;points=[];portConstraint=eastwest;strokeColor=inherit;" vertex="1" parent="2I9qT5UJBkGQZ5aFNonT-104">
          <mxGeometry y="70" width="240" height="8" as="geometry" />
        </mxCell>
        <mxCell id="2I9qT5UJBkGQZ5aFNonT-107" value="&lt;div&gt;+&lt;/div&gt;" style="text;strokeColor=none;fillColor=default;align=left;verticalAlign=top;spacingLeft=4;spacingRight=4;overflow=hidden;rotatable=0;points=[[0,0.5],[1,0.5]];portConstraint=eastwest;whiteSpace=wrap;html=1;" vertex="1" parent="2I9qT5UJBkGQZ5aFNonT-104">
          <mxGeometry y="78" width="240" height="26" as="geometry" />
        </mxCell>
        <mxCell id="2I9qT5UJBkGQZ5aFNonT-108" value="" style="endArrow=block;endFill=0;endSize=12;html=1;rounded=0;" edge="1" parent="WIyWlLk6GJQsqaUBKTNV-1" source="2I9qT5UJBkGQZ5aFNonT-104" target="2I9qT5UJBkGQZ5aFNonT-88">
          <mxGeometry width="160" relative="1" as="geometry">
            <mxPoint x="-310" y="293" as="sourcePoint" />
            <mxPoint x="-225" y="210" as="targetPoint" />
          </mxGeometry>
        </mxCell>
        <mxCell id="2I9qT5UJBkGQZ5aFNonT-109" value="" style="endArrow=block;endFill=0;endSize=12;html=1;rounded=0;" edge="1" parent="WIyWlLk6GJQsqaUBKTNV-1" source="2I9qT5UJBkGQZ5aFNonT-100" target="2I9qT5UJBkGQZ5aFNonT-104">
          <mxGeometry width="160" relative="1" as="geometry">
            <mxPoint x="-260" y="403" as="sourcePoint" />
            <mxPoint x="-175" y="320" as="targetPoint" />
          </mxGeometry>
        </mxCell>
        <mxCell id="2I9qT5UJBkGQZ5aFNonT-110" value="&lt;font style=&quot;font-size: 16px;&quot;&gt;BaseObjectTypeDef&lt;/font&gt;" style="swimlane;fontStyle=1;align=center;verticalAlign=top;childLayout=stackLayout;horizontal=1;startSize=30;horizontalStack=0;resizeParent=1;resizeParentMax=0;resizeLast=0;collapsible=1;marginBottom=0;whiteSpace=wrap;html=1;fillColor=#f8cecc;strokeColor=#b85450;" vertex="1" collapsed="1" parent="WIyWlLk6GJQsqaUBKTNV-1">
          <mxGeometry x="-200" y="320" width="160" height="30" as="geometry">
            <mxRectangle x="-385" y="330" width="240" height="104" as="alternateBounds" />
          </mxGeometry>
        </mxCell>
        <mxCell id="2I9qT5UJBkGQZ5aFNonT-111" value="&lt;div&gt;+&lt;/div&gt;" style="text;strokeColor=none;fillColor=default;align=left;verticalAlign=top;spacingLeft=4;spacingRight=4;overflow=hidden;rotatable=0;points=[[0,0.5],[1,0.5]];portConstraint=eastwest;whiteSpace=wrap;html=1;" vertex="1" parent="2I9qT5UJBkGQZ5aFNonT-110">
          <mxGeometry y="30" width="240" height="40" as="geometry" />
        </mxCell>
        <mxCell id="2I9qT5UJBkGQZ5aFNonT-112" value="" style="line;strokeWidth=1;fillColor=none;align=left;verticalAlign=middle;spacingTop=-1;spacingLeft=3;spacingRight=3;rotatable=0;labelPosition=right;points=[];portConstraint=eastwest;strokeColor=inherit;" vertex="1" parent="2I9qT5UJBkGQZ5aFNonT-110">
          <mxGeometry y="70" width="240" height="8" as="geometry" />
        </mxCell>
        <mxCell id="2I9qT5UJBkGQZ5aFNonT-113" value="&lt;div&gt;+&lt;/div&gt;" style="text;strokeColor=none;fillColor=default;align=left;verticalAlign=top;spacingLeft=4;spacingRight=4;overflow=hidden;rotatable=0;points=[[0,0.5],[1,0.5]];portConstraint=eastwest;whiteSpace=wrap;html=1;" vertex="1" parent="2I9qT5UJBkGQZ5aFNonT-110">
          <mxGeometry y="78" width="240" height="26" as="geometry" />
        </mxCell>
        <mxCell id="2I9qT5UJBkGQZ5aFNonT-114" value="" style="endArrow=block;endFill=0;endSize=12;html=1;rounded=0;" edge="1" parent="WIyWlLk6GJQsqaUBKTNV-1" source="2I9qT5UJBkGQZ5aFNonT-110" target="2I9qT5UJBkGQZ5aFNonT-104">
          <mxGeometry width="160" relative="1" as="geometry">
            <mxPoint x="-260" y="350" as="sourcePoint" />
            <mxPoint x="-240" y="310" as="targetPoint" />
          </mxGeometry>
        </mxCell>
        <mxCell id="2I9qT5UJBkGQZ5aFNonT-115" value="&lt;font style=&quot;font-size: 16px;&quot;&gt;ObjectTypeDef&lt;/font&gt;" style="swimlane;fontStyle=1;align=center;verticalAlign=top;childLayout=stackLayout;horizontal=1;startSize=30;horizontalStack=0;resizeParent=1;resizeParentMax=0;resizeLast=0;collapsible=1;marginBottom=0;whiteSpace=wrap;html=1;fillColor=#f8cecc;strokeColor=#b85450;" vertex="1" collapsed="1" parent="WIyWlLk6GJQsqaUBKTNV-1">
          <mxGeometry x="-200" y="380" width="160" height="30" as="geometry">
            <mxRectangle x="-385" y="330" width="240" height="104" as="alternateBounds" />
          </mxGeometry>
        </mxCell>
        <mxCell id="2I9qT5UJBkGQZ5aFNonT-116" value="&lt;div&gt;+&lt;/div&gt;" style="text;strokeColor=none;fillColor=default;align=left;verticalAlign=top;spacingLeft=4;spacingRight=4;overflow=hidden;rotatable=0;points=[[0,0.5],[1,0.5]];portConstraint=eastwest;whiteSpace=wrap;html=1;" vertex="1" parent="2I9qT5UJBkGQZ5aFNonT-115">
          <mxGeometry y="30" width="240" height="40" as="geometry" />
        </mxCell>
        <mxCell id="2I9qT5UJBkGQZ5aFNonT-117" value="" style="line;strokeWidth=1;fillColor=none;align=left;verticalAlign=middle;spacingTop=-1;spacingLeft=3;spacingRight=3;rotatable=0;labelPosition=right;points=[];portConstraint=eastwest;strokeColor=inherit;" vertex="1" parent="2I9qT5UJBkGQZ5aFNonT-115">
          <mxGeometry y="70" width="240" height="8" as="geometry" />
        </mxCell>
        <mxCell id="2I9qT5UJBkGQZ5aFNonT-118" value="&lt;div&gt;+&lt;/div&gt;" style="text;strokeColor=none;fillColor=default;align=left;verticalAlign=top;spacingLeft=4;spacingRight=4;overflow=hidden;rotatable=0;points=[[0,0.5],[1,0.5]];portConstraint=eastwest;whiteSpace=wrap;html=1;" vertex="1" parent="2I9qT5UJBkGQZ5aFNonT-115">
          <mxGeometry y="78" width="240" height="26" as="geometry" />
        </mxCell>
        <mxCell id="2I9qT5UJBkGQZ5aFNonT-119" value="" style="endArrow=block;endFill=0;endSize=12;html=1;rounded=0;" edge="1" parent="WIyWlLk6GJQsqaUBKTNV-1" source="2I9qT5UJBkGQZ5aFNonT-115" target="2I9qT5UJBkGQZ5aFNonT-110">
          <mxGeometry width="160" relative="1" as="geometry">
            <mxPoint x="-87" y="360" as="sourcePoint" />
            <mxPoint x="-170" y="320" as="targetPoint" />
          </mxGeometry>
        </mxCell>
        <mxCell id="2I9qT5UJBkGQZ5aFNonT-120" value="" style="endArrow=block;endFill=0;endSize=12;html=1;rounded=0;" edge="1" parent="WIyWlLk6GJQsqaUBKTNV-1" source="2I9qT5UJBkGQZ5aFNonT-94" target="2I9qT5UJBkGQZ5aFNonT-100">
          <mxGeometry width="160" relative="1" as="geometry">
            <mxPoint x="-110" y="420" as="sourcePoint" />
            <mxPoint x="-110" y="390" as="targetPoint" />
          </mxGeometry>
        </mxCell>
        <mxCell id="2I9qT5UJBkGQZ5aFNonT-122" value="0.." style="endArrow=open;html=1;endSize=12;startArrow=diamondThin;startSize=14;startFill=1;edgeStyle=orthogonalEdgeStyle;align=left;verticalAlign=bottom;rounded=0;" edge="1" parent="WIyWlLk6GJQsqaUBKTNV-1" source="2I9qT5UJBkGQZ5aFNonT-94" target="2I9qT5UJBkGQZ5aFNonT-131">
          <mxGeometry x="-0.8309" y="4" relative="1" as="geometry">
            <mxPoint x="-370" y="490" as="sourcePoint" />
            <mxPoint x="-180" y="530" as="targetPoint" />
            <mxPoint as="offset" />
          </mxGeometry>
        </mxCell>
        <mxCell id="2I9qT5UJBkGQZ5aFNonT-123" value="&lt;font style=&quot;font-size: 16px;&quot;&gt;Activity&lt;/font&gt;" style="swimlane;fontStyle=1;align=center;verticalAlign=top;childLayout=stackLayout;horizontal=1;startSize=30;horizontalStack=0;resizeParent=1;resizeParentMax=0;resizeLast=0;collapsible=1;marginBottom=0;whiteSpace=wrap;html=1;fillColor=#d5e8d4;strokeColor=#82b366;" vertex="1" collapsed="1" parent="WIyWlLk6GJQsqaUBKTNV-1">
          <mxGeometry x="-445" y="600" width="125" height="30" as="geometry">
            <mxRectangle x="-430" y="450" width="240" height="104" as="alternateBounds" />
          </mxGeometry>
        </mxCell>
        <mxCell id="2I9qT5UJBkGQZ5aFNonT-124" value="&lt;div&gt;+&lt;/div&gt;" style="text;strokeColor=none;fillColor=default;align=left;verticalAlign=top;spacingLeft=4;spacingRight=4;overflow=hidden;rotatable=0;points=[[0,0.5],[1,0.5]];portConstraint=eastwest;whiteSpace=wrap;html=1;" vertex="1" parent="2I9qT5UJBkGQZ5aFNonT-123">
          <mxGeometry y="30" width="240" height="40" as="geometry" />
        </mxCell>
        <mxCell id="2I9qT5UJBkGQZ5aFNonT-125" value="" style="line;strokeWidth=1;fillColor=none;align=left;verticalAlign=middle;spacingTop=-1;spacingLeft=3;spacingRight=3;rotatable=0;labelPosition=right;points=[];portConstraint=eastwest;strokeColor=inherit;" vertex="1" parent="2I9qT5UJBkGQZ5aFNonT-123">
          <mxGeometry y="70" width="240" height="8" as="geometry" />
        </mxCell>
        <mxCell id="2I9qT5UJBkGQZ5aFNonT-126" value="&lt;div&gt;+&lt;/div&gt;" style="text;strokeColor=none;fillColor=default;align=left;verticalAlign=top;spacingLeft=4;spacingRight=4;overflow=hidden;rotatable=0;points=[[0,0.5],[1,0.5]];portConstraint=eastwest;whiteSpace=wrap;html=1;" vertex="1" parent="2I9qT5UJBkGQZ5aFNonT-123">
          <mxGeometry y="78" width="240" height="26" as="geometry" />
        </mxCell>
        <mxCell id="2I9qT5UJBkGQZ5aFNonT-127" value="&lt;font style=&quot;font-size: 16px;&quot;&gt;Entity&lt;/font&gt;" style="swimlane;fontStyle=1;align=center;verticalAlign=top;childLayout=stackLayout;horizontal=1;startSize=30;horizontalStack=0;resizeParent=1;resizeParentMax=0;resizeLast=0;collapsible=1;marginBottom=0;whiteSpace=wrap;html=1;fillColor=#d5e8d4;strokeColor=#82b366;" vertex="1" collapsed="1" parent="WIyWlLk6GJQsqaUBKTNV-1">
          <mxGeometry x="-247.5" y="600" width="125" height="30" as="geometry">
            <mxRectangle x="-430" y="450" width="240" height="104" as="alternateBounds" />
          </mxGeometry>
        </mxCell>
        <mxCell id="2I9qT5UJBkGQZ5aFNonT-128" value="&lt;div&gt;+&lt;/div&gt;" style="text;strokeColor=none;fillColor=default;align=left;verticalAlign=top;spacingLeft=4;spacingRight=4;overflow=hidden;rotatable=0;points=[[0,0.5],[1,0.5]];portConstraint=eastwest;whiteSpace=wrap;html=1;" vertex="1" parent="2I9qT5UJBkGQZ5aFNonT-127">
          <mxGeometry y="30" width="240" height="40" as="geometry" />
        </mxCell>
        <mxCell id="2I9qT5UJBkGQZ5aFNonT-129" value="" style="line;strokeWidth=1;fillColor=none;align=left;verticalAlign=middle;spacingTop=-1;spacingLeft=3;spacingRight=3;rotatable=0;labelPosition=right;points=[];portConstraint=eastwest;strokeColor=inherit;" vertex="1" parent="2I9qT5UJBkGQZ5aFNonT-127">
          <mxGeometry y="70" width="240" height="8" as="geometry" />
        </mxCell>
        <mxCell id="2I9qT5UJBkGQZ5aFNonT-130" value="&lt;div&gt;+&lt;/div&gt;" style="text;strokeColor=none;fillColor=default;align=left;verticalAlign=top;spacingLeft=4;spacingRight=4;overflow=hidden;rotatable=0;points=[[0,0.5],[1,0.5]];portConstraint=eastwest;whiteSpace=wrap;html=1;" vertex="1" parent="2I9qT5UJBkGQZ5aFNonT-127">
          <mxGeometry y="78" width="240" height="26" as="geometry" />
        </mxCell>
        <mxCell id="2I9qT5UJBkGQZ5aFNonT-131" value="&lt;font style=&quot;font-size: 16px;&quot;&gt;BaseEntity&lt;/font&gt;" style="swimlane;fontStyle=1;align=center;verticalAlign=top;childLayout=stackLayout;horizontal=1;startSize=30;horizontalStack=0;resizeParent=1;resizeParentMax=0;resizeLast=0;collapsible=1;marginBottom=0;whiteSpace=wrap;html=1;fillColor=#d5e8d4;strokeColor=#82b366;" vertex="1" collapsed="1" parent="WIyWlLk6GJQsqaUBKTNV-1">
          <mxGeometry x="-290" y="540" width="125" height="30" as="geometry">
            <mxRectangle x="-430" y="450" width="240" height="104" as="alternateBounds" />
          </mxGeometry>
        </mxCell>
        <mxCell id="2I9qT5UJBkGQZ5aFNonT-132" value="&lt;div&gt;+&lt;/div&gt;" style="text;strokeColor=none;fillColor=default;align=left;verticalAlign=top;spacingLeft=4;spacingRight=4;overflow=hidden;rotatable=0;points=[[0,0.5],[1,0.5]];portConstraint=eastwest;whiteSpace=wrap;html=1;" vertex="1" parent="2I9qT5UJBkGQZ5aFNonT-131">
          <mxGeometry y="30" width="240" height="40" as="geometry" />
        </mxCell>
        <mxCell id="2I9qT5UJBkGQZ5aFNonT-133" value="" style="line;strokeWidth=1;fillColor=none;align=left;verticalAlign=middle;spacingTop=-1;spacingLeft=3;spacingRight=3;rotatable=0;labelPosition=right;points=[];portConstraint=eastwest;strokeColor=inherit;" vertex="1" parent="2I9qT5UJBkGQZ5aFNonT-131">
          <mxGeometry y="70" width="240" height="8" as="geometry" />
        </mxCell>
        <mxCell id="2I9qT5UJBkGQZ5aFNonT-134" value="&lt;div&gt;+&lt;/div&gt;" style="text;strokeColor=none;fillColor=default;align=left;verticalAlign=top;spacingLeft=4;spacingRight=4;overflow=hidden;rotatable=0;points=[[0,0.5],[1,0.5]];portConstraint=eastwest;whiteSpace=wrap;html=1;" vertex="1" parent="2I9qT5UJBkGQZ5aFNonT-131">
          <mxGeometry y="78" width="240" height="26" as="geometry" />
        </mxCell>
        <mxCell id="2I9qT5UJBkGQZ5aFNonT-135" value="" style="endArrow=block;endFill=0;endSize=12;html=1;rounded=0;" edge="1" parent="WIyWlLk6GJQsqaUBKTNV-1" source="2I9qT5UJBkGQZ5aFNonT-131" target="2I9qT5UJBkGQZ5aFNonT-84">
          <mxGeometry width="160" relative="1" as="geometry">
            <mxPoint x="-570" y="610" as="sourcePoint" />
            <mxPoint x="-570" y="430" as="targetPoint" />
          </mxGeometry>
        </mxCell>
        <mxCell id="2I9qT5UJBkGQZ5aFNonT-136" value="" style="endArrow=block;endFill=0;endSize=12;html=1;rounded=0;" edge="1" parent="WIyWlLk6GJQsqaUBKTNV-1" source="2I9qT5UJBkGQZ5aFNonT-123" target="2I9qT5UJBkGQZ5aFNonT-131">
          <mxGeometry width="160" relative="1" as="geometry">
            <mxPoint x="-200" y="520" as="sourcePoint" />
            <mxPoint x="-400" y="520" as="targetPoint" />
          </mxGeometry>
        </mxCell>
        <mxCell id="2I9qT5UJBkGQZ5aFNonT-137" value="" style="endArrow=block;endFill=0;endSize=12;html=1;rounded=0;" edge="1" parent="WIyWlLk6GJQsqaUBKTNV-1" source="2I9qT5UJBkGQZ5aFNonT-127" target="2I9qT5UJBkGQZ5aFNonT-131">
          <mxGeometry width="160" relative="1" as="geometry">
            <mxPoint x="-10" y="610" as="sourcePoint" />
            <mxPoint x="-210" y="610" as="targetPoint" />
          </mxGeometry>
        </mxCell>
        <mxCell id="2I9qT5UJBkGQZ5aFNonT-138" value="&lt;font style=&quot;font-size: 16px;&quot;&gt;Measurement&lt;/font&gt;" style="swimlane;fontStyle=1;align=center;verticalAlign=top;childLayout=stackLayout;horizontal=1;startSize=30;horizontalStack=0;resizeParent=1;resizeParentMax=0;resizeLast=0;collapsible=1;marginBottom=0;whiteSpace=wrap;html=1;fillColor=#d5e8d4;strokeColor=#82b366;" vertex="1" collapsed="1" parent="WIyWlLk6GJQsqaUBKTNV-1">
          <mxGeometry x="-500" y="660" width="125" height="30" as="geometry">
            <mxRectangle x="-430" y="450" width="240" height="104" as="alternateBounds" />
          </mxGeometry>
        </mxCell>
        <mxCell id="2I9qT5UJBkGQZ5aFNonT-139" value="&lt;div&gt;+&lt;/div&gt;" style="text;strokeColor=none;fillColor=default;align=left;verticalAlign=top;spacingLeft=4;spacingRight=4;overflow=hidden;rotatable=0;points=[[0,0.5],[1,0.5]];portConstraint=eastwest;whiteSpace=wrap;html=1;" vertex="1" parent="2I9qT5UJBkGQZ5aFNonT-138">
          <mxGeometry y="30" width="240" height="40" as="geometry" />
        </mxCell>
        <mxCell id="2I9qT5UJBkGQZ5aFNonT-140" value="" style="line;strokeWidth=1;fillColor=none;align=left;verticalAlign=middle;spacingTop=-1;spacingLeft=3;spacingRight=3;rotatable=0;labelPosition=right;points=[];portConstraint=eastwest;strokeColor=inherit;" vertex="1" parent="2I9qT5UJBkGQZ5aFNonT-138">
          <mxGeometry y="70" width="240" height="8" as="geometry" />
        </mxCell>
        <mxCell id="2I9qT5UJBkGQZ5aFNonT-141" value="&lt;div&gt;+&lt;/div&gt;" style="text;strokeColor=none;fillColor=default;align=left;verticalAlign=top;spacingLeft=4;spacingRight=4;overflow=hidden;rotatable=0;points=[[0,0.5],[1,0.5]];portConstraint=eastwest;whiteSpace=wrap;html=1;" vertex="1" parent="2I9qT5UJBkGQZ5aFNonT-138">
          <mxGeometry y="78" width="240" height="26" as="geometry" />
        </mxCell>
        <mxCell id="2I9qT5UJBkGQZ5aFNonT-142" value="&lt;font style=&quot;font-size: 16px;&quot;&gt;...&lt;/font&gt;" style="swimlane;fontStyle=1;align=center;verticalAlign=top;childLayout=stackLayout;horizontal=1;startSize=30;horizontalStack=0;resizeParent=1;resizeParentMax=0;resizeLast=0;collapsible=1;marginBottom=0;whiteSpace=wrap;html=1;fillColor=#d5e8d4;strokeColor=#82b366;" vertex="1" collapsed="1" parent="WIyWlLk6GJQsqaUBKTNV-1">
          <mxGeometry x="-410" y="700" width="125" height="30" as="geometry">
            <mxRectangle x="-430" y="450" width="240" height="104" as="alternateBounds" />
          </mxGeometry>
        </mxCell>
        <mxCell id="2I9qT5UJBkGQZ5aFNonT-143" value="&lt;div&gt;+&lt;/div&gt;" style="text;strokeColor=none;fillColor=default;align=left;verticalAlign=top;spacingLeft=4;spacingRight=4;overflow=hidden;rotatable=0;points=[[0,0.5],[1,0.5]];portConstraint=eastwest;whiteSpace=wrap;html=1;" vertex="1" parent="2I9qT5UJBkGQZ5aFNonT-142">
          <mxGeometry y="30" width="240" height="40" as="geometry" />
        </mxCell>
        <mxCell id="2I9qT5UJBkGQZ5aFNonT-144" value="" style="line;strokeWidth=1;fillColor=none;align=left;verticalAlign=middle;spacingTop=-1;spacingLeft=3;spacingRight=3;rotatable=0;labelPosition=right;points=[];portConstraint=eastwest;strokeColor=inherit;" vertex="1" parent="2I9qT5UJBkGQZ5aFNonT-142">
          <mxGeometry y="70" width="240" height="8" as="geometry" />
        </mxCell>
        <mxCell id="2I9qT5UJBkGQZ5aFNonT-145" value="&lt;div&gt;+&lt;/div&gt;" style="text;strokeColor=none;fillColor=default;align=left;verticalAlign=top;spacingLeft=4;spacingRight=4;overflow=hidden;rotatable=0;points=[[0,0.5],[1,0.5]];portConstraint=eastwest;whiteSpace=wrap;html=1;" vertex="1" parent="2I9qT5UJBkGQZ5aFNonT-142">
          <mxGeometry y="78" width="240" height="26" as="geometry" />
        </mxCell>
        <mxCell id="2I9qT5UJBkGQZ5aFNonT-146" value="" style="endArrow=block;endFill=0;endSize=12;html=1;rounded=0;" edge="1" parent="WIyWlLk6GJQsqaUBKTNV-1" source="2I9qT5UJBkGQZ5aFNonT-138" target="2I9qT5UJBkGQZ5aFNonT-123">
          <mxGeometry width="160" relative="1" as="geometry">
            <mxPoint x="-330" y="700" as="sourcePoint" />
            <mxPoint x="-268" y="620" as="targetPoint" />
          </mxGeometry>
        </mxCell>
        <mxCell id="2I9qT5UJBkGQZ5aFNonT-147" value="" style="endArrow=block;endFill=0;endSize=12;html=1;rounded=0;" edge="1" parent="WIyWlLk6GJQsqaUBKTNV-1" source="2I9qT5UJBkGQZ5aFNonT-142" target="2I9qT5UJBkGQZ5aFNonT-123">
          <mxGeometry width="160" relative="1" as="geometry">
            <mxPoint x="-320" y="700" as="sourcePoint" />
            <mxPoint x="-258" y="620" as="targetPoint" />
          </mxGeometry>
        </mxCell>
        <mxCell id="2I9qT5UJBkGQZ5aFNonT-148" value="&lt;font style=&quot;font-size: 16px;&quot;&gt;Instrument&lt;/font&gt;" style="swimlane;fontStyle=1;align=center;verticalAlign=top;childLayout=stackLayout;horizontal=1;startSize=30;horizontalStack=0;resizeParent=1;resizeParentMax=0;resizeLast=0;collapsible=1;marginBottom=0;whiteSpace=wrap;html=1;fillColor=#d5e8d4;strokeColor=#82b366;" vertex="1" collapsed="1" parent="WIyWlLk6GJQsqaUBKTNV-1">
          <mxGeometry x="-285" y="660" width="125" height="30" as="geometry">
            <mxRectangle x="-430" y="450" width="240" height="104" as="alternateBounds" />
          </mxGeometry>
        </mxCell>
        <mxCell id="2I9qT5UJBkGQZ5aFNonT-149" value="&lt;div&gt;+&lt;/div&gt;" style="text;strokeColor=none;fillColor=default;align=left;verticalAlign=top;spacingLeft=4;spacingRight=4;overflow=hidden;rotatable=0;points=[[0,0.5],[1,0.5]];portConstraint=eastwest;whiteSpace=wrap;html=1;" vertex="1" parent="2I9qT5UJBkGQZ5aFNonT-148">
          <mxGeometry y="30" width="240" height="40" as="geometry" />
        </mxCell>
        <mxCell id="2I9qT5UJBkGQZ5aFNonT-150" value="" style="line;strokeWidth=1;fillColor=none;align=left;verticalAlign=middle;spacingTop=-1;spacingLeft=3;spacingRight=3;rotatable=0;labelPosition=right;points=[];portConstraint=eastwest;strokeColor=inherit;" vertex="1" parent="2I9qT5UJBkGQZ5aFNonT-148">
          <mxGeometry y="70" width="240" height="8" as="geometry" />
        </mxCell>
        <mxCell id="2I9qT5UJBkGQZ5aFNonT-151" value="&lt;div&gt;+&lt;/div&gt;" style="text;strokeColor=none;fillColor=default;align=left;verticalAlign=top;spacingLeft=4;spacingRight=4;overflow=hidden;rotatable=0;points=[[0,0.5],[1,0.5]];portConstraint=eastwest;whiteSpace=wrap;html=1;" vertex="1" parent="2I9qT5UJBkGQZ5aFNonT-148">
          <mxGeometry y="78" width="240" height="26" as="geometry" />
        </mxCell>
        <mxCell id="2I9qT5UJBkGQZ5aFNonT-152" value="&lt;font style=&quot;font-size: 16px;&quot;&gt;...&lt;/font&gt;" style="swimlane;fontStyle=1;align=center;verticalAlign=top;childLayout=stackLayout;horizontal=1;startSize=30;horizontalStack=0;resizeParent=1;resizeParentMax=0;resizeLast=0;collapsible=1;marginBottom=0;whiteSpace=wrap;html=1;fillColor=#d5e8d4;strokeColor=#82b366;" vertex="1" collapsed="1" parent="WIyWlLk6GJQsqaUBKTNV-1">
          <mxGeometry x="-182.5" y="700" width="125" height="30" as="geometry">
            <mxRectangle x="-430" y="450" width="240" height="104" as="alternateBounds" />
          </mxGeometry>
        </mxCell>
        <mxCell id="2I9qT5UJBkGQZ5aFNonT-153" value="&lt;div&gt;+&lt;/div&gt;" style="text;strokeColor=none;fillColor=default;align=left;verticalAlign=top;spacingLeft=4;spacingRight=4;overflow=hidden;rotatable=0;points=[[0,0.5],[1,0.5]];portConstraint=eastwest;whiteSpace=wrap;html=1;" vertex="1" parent="2I9qT5UJBkGQZ5aFNonT-152">
          <mxGeometry y="30" width="240" height="40" as="geometry" />
        </mxCell>
        <mxCell id="2I9qT5UJBkGQZ5aFNonT-154" value="" style="line;strokeWidth=1;fillColor=none;align=left;verticalAlign=middle;spacingTop=-1;spacingLeft=3;spacingRight=3;rotatable=0;labelPosition=right;points=[];portConstraint=eastwest;strokeColor=inherit;" vertex="1" parent="2I9qT5UJBkGQZ5aFNonT-152">
          <mxGeometry y="70" width="240" height="8" as="geometry" />
        </mxCell>
        <mxCell id="2I9qT5UJBkGQZ5aFNonT-155" value="&lt;div&gt;+&lt;/div&gt;" style="text;strokeColor=none;fillColor=default;align=left;verticalAlign=top;spacingLeft=4;spacingRight=4;overflow=hidden;rotatable=0;points=[[0,0.5],[1,0.5]];portConstraint=eastwest;whiteSpace=wrap;html=1;" vertex="1" parent="2I9qT5UJBkGQZ5aFNonT-152">
          <mxGeometry y="78" width="240" height="26" as="geometry" />
        </mxCell>
        <mxCell id="2I9qT5UJBkGQZ5aFNonT-156" value="" style="endArrow=block;endFill=0;endSize=12;html=1;rounded=0;" edge="1" parent="WIyWlLk6GJQsqaUBKTNV-1" source="2I9qT5UJBkGQZ5aFNonT-148" target="2I9qT5UJBkGQZ5aFNonT-127">
          <mxGeometry width="160" relative="1" as="geometry">
            <mxPoint x="-90" y="720" as="sourcePoint" />
            <mxPoint x="-156" y="650" as="targetPoint" />
          </mxGeometry>
        </mxCell>
        <mxCell id="2I9qT5UJBkGQZ5aFNonT-158" value="1.." style="endArrow=open;html=1;endSize=12;startArrow=diamondThin;startSize=14;startFill=1;edgeStyle=orthogonalEdgeStyle;align=left;verticalAlign=bottom;rounded=0;" edge="1" parent="WIyWlLk6GJQsqaUBKTNV-1" source="2I9qT5UJBkGQZ5aFNonT-115" target="2I9qT5UJBkGQZ5aFNonT-131">
          <mxGeometry x="-0.8309" y="4" relative="1" as="geometry">
            <mxPoint x="-290" y="450" as="sourcePoint" />
            <mxPoint x="-184" y="580" as="targetPoint" />
            <mxPoint as="offset" />
          </mxGeometry>
        </mxCell>
        <mxCell id="2I9qT5UJBkGQZ5aFNonT-159" value="Use any" style="endArrow=open;endSize=12;dashed=1;html=1;rounded=0;" edge="1" parent="WIyWlLk6GJQsqaUBKTNV-1" source="2I9qT5UJBkGQZ5aFNonT-30" target="2I9qT5UJBkGQZ5aFNonT-131">
          <mxGeometry width="160" relative="1" as="geometry">
            <mxPoint x="230" y="653" as="sourcePoint" />
            <mxPoint x="400" y="500" as="targetPoint" />
          </mxGeometry>
        </mxCell>
        <mxCell id="2I9qT5UJBkGQZ5aFNonT-160" value="&lt;font style=&quot;font-size: 16px;&quot;&gt;CollectionType&lt;/font&gt;" style="swimlane;fontStyle=1;align=center;verticalAlign=top;childLayout=stackLayout;horizontal=1;startSize=30;horizontalStack=0;resizeParent=1;resizeParentMax=0;resizeLast=0;collapsible=1;marginBottom=0;whiteSpace=wrap;html=1;fillColor=#f8cecc;strokeColor=#b85450;" vertex="1" collapsed="1" parent="WIyWlLk6GJQsqaUBKTNV-1">
          <mxGeometry x="-870" y="370" width="220" height="30" as="geometry">
            <mxRectangle x="-430" y="450" width="240" height="104" as="alternateBounds" />
          </mxGeometry>
        </mxCell>
        <mxCell id="2I9qT5UJBkGQZ5aFNonT-161" value="&lt;div&gt;+&lt;/div&gt;" style="text;strokeColor=none;fillColor=default;align=left;verticalAlign=top;spacingLeft=4;spacingRight=4;overflow=hidden;rotatable=0;points=[[0,0.5],[1,0.5]];portConstraint=eastwest;whiteSpace=wrap;html=1;" vertex="1" parent="2I9qT5UJBkGQZ5aFNonT-160">
          <mxGeometry y="30" width="240" height="40" as="geometry" />
        </mxCell>
        <mxCell id="2I9qT5UJBkGQZ5aFNonT-162" value="" style="line;strokeWidth=1;fillColor=none;align=left;verticalAlign=middle;spacingTop=-1;spacingLeft=3;spacingRight=3;rotatable=0;labelPosition=right;points=[];portConstraint=eastwest;strokeColor=inherit;" vertex="1" parent="2I9qT5UJBkGQZ5aFNonT-160">
          <mxGeometry y="70" width="240" height="8" as="geometry" />
        </mxCell>
        <mxCell id="2I9qT5UJBkGQZ5aFNonT-163" value="&lt;div&gt;+&lt;/div&gt;" style="text;strokeColor=none;fillColor=default;align=left;verticalAlign=top;spacingLeft=4;spacingRight=4;overflow=hidden;rotatable=0;points=[[0,0.5],[1,0.5]];portConstraint=eastwest;whiteSpace=wrap;html=1;" vertex="1" parent="2I9qT5UJBkGQZ5aFNonT-160">
          <mxGeometry y="78" width="240" height="26" as="geometry" />
        </mxCell>
        <mxCell id="2I9qT5UJBkGQZ5aFNonT-164" value="" style="endArrow=block;endFill=0;endSize=12;html=1;rounded=0;" edge="1" parent="WIyWlLk6GJQsqaUBKTNV-1" source="2I9qT5UJBkGQZ5aFNonT-160" target="2I9qT5UJBkGQZ5aFNonT-90">
          <mxGeometry width="160" relative="1" as="geometry">
            <mxPoint x="-600" y="590" as="sourcePoint" />
            <mxPoint x="-600" y="410" as="targetPoint" />
          </mxGeometry>
        </mxCell>
        <mxCell id="2I9qT5UJBkGQZ5aFNonT-173" value="legend" style="swimlane;startSize=20;horizontal=1;containerType=tree;" vertex="1" parent="WIyWlLk6GJQsqaUBKTNV-1">
          <mxGeometry x="500" y="560" width="150" height="230" as="geometry" />
        </mxCell>
        <mxCell id="2I9qT5UJBkGQZ5aFNonT-5" value="Python classes" style="whiteSpace=wrap;html=1;fillColor=#f8cecc;strokeColor=#b85450;" vertex="1" parent="2I9qT5UJBkGQZ5aFNonT-173">
          <mxGeometry x="25" y="30" width="100" height="40" as="geometry" />
        </mxCell>
        <mxCell id="2I9qT5UJBkGQZ5aFNonT-169" value="Python datamodel classes" style="whiteSpace=wrap;html=1;fillColor=#d5e8d4;strokeColor=#82b366;" vertex="1" parent="2I9qT5UJBkGQZ5aFNonT-173">
          <mxGeometry x="25" y="80" width="100" height="40" as="geometry" />
        </mxCell>
        <mxCell id="2I9qT5UJBkGQZ5aFNonT-170" value="External libraries" style="whiteSpace=wrap;html=1;fillColor=#f5f5f5;fontColor=#333333;strokeColor=#666666;" vertex="1" parent="2I9qT5UJBkGQZ5aFNonT-173">
          <mxGeometry x="25" y="180" width="100" height="40" as="geometry" />
        </mxCell>
        <mxCell id="2I9qT5UJBkGQZ5aFNonT-177" value="Examples implementation" style="whiteSpace=wrap;html=1;fillColor=#e1d5e7;strokeColor=#9673a6;" vertex="1" parent="2I9qT5UJBkGQZ5aFNonT-173">
          <mxGeometry x="25" y="130" width="100" height="40" as="geometry" />
        </mxCell>
        <mxCell id="2I9qT5UJBkGQZ5aFNonT-187" value="bam-masterdata" style="text;html=1;align=center;verticalAlign=middle;whiteSpace=wrap;rounded=0;fontSize=22;fontStyle=1" vertex="1" parent="WIyWlLk6GJQsqaUBKTNV-1">
          <mxGeometry x="-880" y="220" width="190" height="30" as="geometry" />
        </mxCell>
      </root>
    </mxGraphModel>
  </diagram>
</mxfile>
